<svg xmlns="http://www.w3.org/2000/svg" width="260.026" height="329.25" viewBox="0 0 260.026 329.25">
  <defs>
    <style>
      .cls-1 {
        fill: #fff;
        fill-rule: evenodd;
      }
    </style>
  </defs>
  <path id="R" class="cls-1" d="M917.4,1887.24q-0.369,1.47-4.76,1.47-2.566,0-11.353-1.1-14.65-1.47-18.677-4.4-3.3-3.3-9.887-24.9-4.764-15.015-4.761-16.11l1.1,0.73q1.1,0.735,2.564,1.83t3.479,2.75q2.008,1.65,4.395,3.84c1.585,1.47,3.232,2.93,4.943,4.4s3.479,2.99,5.31,4.57,3.663,3.12,5.494,4.58a63.212,63.212,0,0,1,5.127,4.58q2.377,2.385,4.577,4.21,12.086,11.355,12.451,13.55h0Zm-20.141,131.84,4.394-5.5a73.224,73.224,0,0,0,9.522-15.01l4.76-9.16-4.028-11.72-5.127,9.16q-5.133,10.26-9.155,15.01l-4.761,5.86Zm-62.989-182.74q9.519,25.26,24.537,75.8,9.518,30.765,14.282,45.78,2.927,9.15,3.662,11.35,7.69,24.54,13.184,24.54,5.493-.36,13.916-17.21l3.662-7.69-4.761-13.92q-1.1-2.925-8.057-17.94-5.133-10.995-7.324-16.12,11.347,10.995,119.752,111.33l37.72,34.79,4.76-5.86a100.9,100.9,0,0,0,10.25-15.01l4.76-8.79-12.08-19.05q-15.375-24.165-21.24-35.52l-8.42-17.21-3.67,4.39q-1.1,1.47-4.02,5.5a44.735,44.735,0,0,1-3.3,4.03l-3.3,4.76L996.5,1973.3q-16.479-15.375-75.44-65.55,9.519-1.455,13.916-6.23,13.545-17.94,13.55-28.2a6.985,6.985,0,0,0-.366-2.19q-1.467-6.6-22.339-27.1Q907.5,1826.09,887,1809.6q-10.986-8.79-18.677-15.38a157.429,157.429,0,0,1-30.4-37.35q-10.987-18.315-13.55-19.04l-0.366.36a1.683,1.683,0,0,0-.733.19,3.828,3.828,0,0,0-.915.73c-0.367.36-.733,0.73-1.1,1.1s-0.732.73-1.1,1.1a7.382,7.382,0,0,0-1.1,1.46,8.477,8.477,0,0,1-1.282,1.65q-4.755,6.96-8.789,13.55l-4.395,7.69,4.395,8.42,0.732,1.47a16.246,16.246,0,0,1,1.465,2.19,23.884,23.884,0,0,0,1.465,2.38c0.732,1.1,1.345,2.08,1.831,2.93s1.1,1.9,1.831,3.12,1.408,2.38,2.014,3.48,1.345,2.32,2.2,3.66,1.71,2.69,2.563,4.03a45.518,45.518,0,0,0,2.747,3.84q4.034,6.96,4.394,9.89a16.03,16.03,0,0,1-.732,3.29,15.912,15.912,0,0,0-.733,4.03q0,2.565,5.493,17.95h0Z" transform="translate(-804.594 -1737.81)"/>
</svg>
