<svg xmlns="http://www.w3.org/2000/svg" width="260.03" height="329.25" viewBox="0 0 260.03 329.25">
  <defs>
    <style>
      .cls-1 {
        fill: #fff;
        fill-rule: evenodd;
      }
    </style>
  </defs>
  <path id="R" class="cls-1" d="M1618.4,1887.24c-0.25.98-1.83,1.47-4.76,1.47q-2.565,0-11.36-1.1-14.64-1.47-18.67-4.4-3.3-3.3-9.89-24.9-4.77-15.015-4.76-16.11l1.1,0.73c0.73,0.49,1.58,1.1,2.56,1.83s2.14,1.65,3.48,2.75,2.8,2.38,4.39,3.84,3.24,2.93,4.95,4.4,3.48,2.99,5.31,4.57,3.66,3.12,5.49,4.58a63.261,63.261,0,0,1,5.13,4.58q2.37,2.385,4.58,4.21,12.075,11.355,12.45,13.55h0Zm-20.14,131.84,4.39-5.5a72.971,72.971,0,0,0,9.52-15.01l4.76-9.16-4.03-11.72-5.12,9.16q-5.13,10.26-9.16,15.01l-4.76,5.86Zm-62.99-182.74q9.51,25.26,24.53,75.8,9.525,30.765,14.29,45.78,2.925,9.15,3.66,11.35,7.68,24.54,13.18,24.54,5.49-.36,13.92-17.21l3.66-7.69-4.76-13.92q-1.1-2.925-8.06-17.94-5.13-10.995-7.32-16.12,11.34,10.995,119.75,111.33l37.72,34.79,4.76-5.86a100.9,100.9,0,0,0,10.25-15.01l4.76-8.79-12.08-19.05q-15.375-24.165-21.24-35.52l-8.42-17.21-3.67,4.39q-1.1,1.47-4.02,5.5a44.735,44.735,0,0,1-3.3,4.03l-3.3,4.76-12.08-10.99q-16.485-15.375-75.44-65.55,9.525-1.455,13.92-6.23,13.53-17.94,13.55-28.2a6.992,6.992,0,0,0-.37-2.19q-1.47-6.6-22.34-27.1-18.315-17.94-38.82-34.43-10.98-8.79-18.67-15.38a157.349,157.349,0,0,1-30.4-37.35q-10.98-18.315-13.55-19.04l-0.37.36a1.688,1.688,0,0,0-.73.19,3.709,3.709,0,0,0-.91.73c-0.37.36-.74,0.73-1.1,1.1s-0.74.73-1.1,1.1a7.383,7.383,0,0,0-1.1,1.46,8.665,8.665,0,0,1-1.28,1.65q-4.755,6.96-8.79,13.55l-4.4,7.69,4.4,8.42,0.73,1.47a16.716,16.716,0,0,1,1.47,2.19,22.838,22.838,0,0,0,1.46,2.38c0.73,1.1,1.35,2.08,1.83,2.93s1.1,1.9,1.83,3.12,1.41,2.38,2.02,3.48,1.34,2.32,2.19,3.66,1.72,2.69,2.57,4.03a46.61,46.61,0,0,0,2.74,3.84q4.035,6.96,4.4,9.89a16.116,16.116,0,0,1-.73,3.29,15.85,15.85,0,0,0-.74,4.03q0,2.565,5.5,17.95h0Z" transform="translate(-1505.59 -1737.81)"/>
</svg>
