<svg xmlns="http://www.w3.org/2000/svg" width="207.28" height="179.82" viewBox="0 0 207.28 179.82">
  <defs>
    <style>
      .cls-1 {
        fill-rule: evenodd;
      }
    </style>
  </defs>
  <path id="u" class="cls-1" d="M1178.98,1926.79q-29.31-36.615-60.79-91.55a1.074,1.074,0,0,0-.37-0.73q-13.545-23.445-16.11-23.44-1.845.36-6.23,5.86a83.248,83.248,0,0,0-9.52,14.65,50.187,50.187,0,0,0-3.3,8.05c0,0.74.74,2.33,2.2,4.76l12.09,20.15q5.85,9.885,12.81,21.6,35.9,58.23,55.3,77.64,5.85,5.865,11.35,6.22,5.13,0,10.26-5.86a36.855,36.855,0,0,0,2.56-2.92q15.39-19.41,23.81-49.08c1.7-6.59,3.05-10,4.02-10.25l0.37,0.37a5.569,5.569,0,0,1,.73.91c0.24,0.37.55,0.8,0.92,1.28a6.514,6.514,0,0,1,.91,1.83,15.332,15.332,0,0,0,.92,2.2c0.37,0.73.79,1.53,1.28,2.38a10.985,10.985,0,0,1,1.1,2.75q5.85,13.545,19.41,36.62,24.165,40.65,27.83,40.65,1.1-.36,5.13-5.13,14.28-16.485,14.28-22.7-0.375-3.3-8.06-15.02-6.96-9.51-13.55-20.14-34.785-55.29-42.48-100.34c-0.98.98-2.19,2.32-3.66,4.03q-16.485,19.77-16.48,34.79,0,6.225-2.93,23.43-8.43,47.61-13.18,47.61-2.2-.36-10.62-10.62h0Z" transform="translate(-1082.66 -1811.06)"/>
</svg>
