<svg xmlns="http://www.w3.org/2000/svg" width="196.65" height="238.41" viewBox="0 0 196.65 238.41">
  <defs>
    <style>
      .cls-1 {
        fill-rule: evenodd;
      }
    </style>
  </defs>
  <path id="A" class="cls-1" d="M1715.03,1917.47q-2.01-.555-4.94-1.65c-0.5-.24-0.98-0.49-1.47-0.73q-8.055-3.3-8.05-7.69c0-1.96.73-5.13,2.19-9.53l2.57-7.69,6.22,13.55q5.13,11.355,5.49,13.92C1717.04,1917.9,1716.37,1917.83,1715.03,1917.47ZM1683.72,1903a7.908,7.908,0,0,1-2.01-.36c-0.86-.25-1.84-0.55-2.93-0.92s-2.26-.73-3.48-1.1-2.57-.73-4.03-1.1a29.862,29.862,0,0,1-4.03-1.28q-24.54-8.055-38.45-9.15l-14.65-1.1-6.59,8.79a1.033,1.033,0,0,1-.37.73q-12.81,18.315-12.82,21.24v0.36a1.236,1.236,0,0,0,.92.37,5.371,5.371,0,0,1,1.28.18c0.49,0.13.98,0.25,1.47,0.37s1.04,0.25,1.64.37c0.62,0.12,1.23.24,1.84,0.36a8.75,8.75,0,0,0,1.83.19,9.46,9.46,0,0,1,1.83.18,8.63,8.63,0,0,0,1.65.18q26,1.845,65.18,17.58l0.37,0.37c2.19,0.97,3.29,2.32,3.29,4.02q0,3.3-7.32,19.05-13.92,27.825-20.14,43.58a15.991,15.991,0,0,0-.74,1.83q-8.415,21.975-8.42,36.98l0.37,0.74,0.36-.37a2.224,2.224,0,0,0,1.29-.37c0.36-.24.73-0.49,1.09-0.73s0.86-.55,1.47-0.91a18.452,18.452,0,0,0,1.83-1.28c0.61-.5,1.23-1.05,1.83-1.65a12.977,12.977,0,0,1,2.02-1.65,26.157,26.157,0,0,0,2.19-1.65c0.74-.61,1.47-1.28,2.2-2.01q25.275-22.35,53.47-34.06l-19.05-21.61q-18.315,12.09-18.67,12.45,0.36-3.645,15.74-35.52a2.816,2.816,0,0,1,.37-1.1q3.66-7.68,5.49-7.69,1.47,0,6.96,2.93a257.652,257.652,0,0,1,42.48,29.67l15.75,13.55,4.39-5.13a72.938,72.938,0,0,0,9.53-15.02l4.76-9.88-18.68-38.46q-12.45-25.62-19.41-40.65-19.41-42.84-19.41-60.42,0-8.79-3.29-9.52a3.548,3.548,0,0,0-1.84.73q-2.19,1.1-3.29-2.56c-1.23-3.17-2.81-5-4.76-5.5q-2.565,0-6.59,4.4a157.669,157.669,0,0,0-11.36,16.84q-2.19,4.035-2.19,6.6a9.175,9.175,0,0,0,1.46,4.39,4.347,4.347,0,0,1,.73,1.1q8.055,15.75,8.06,24.17a68.162,68.162,0,0,1-1.1,8.79q-5.49,30.03-8.42,30.03Zm88.62,105.47,4.4-5.49a73.5,73.5,0,0,0,9.52-15.02l4.76-9.52-7.32-7.32-5.13,9.15q-5.13,10.26-9.16,15.02l-4.76,5.86Z" transform="translate(-1594.38 -1807.06)"/>
</svg>
