<svg xmlns="http://www.w3.org/2000/svg" width="208.72" height="301.03" viewBox="0 0 208.72 301.03">
  <defs>
    <style>
      .cls-1 {
        fill-rule: evenodd;
      }
    </style>
  </defs>
  <path id="D" class="cls-1" d="M1454.11,1976.98c0.24-.49.49-0.98,0.73-1.47l4.77-9.52-2.2-14.28-4.76,9.52a109.144,109.144,0,0,1-10.99,16.84q-8.43-.36-8.79-0.36h-9.52q-20.88.735-36.25,7.69a51.053,51.053,0,0,0-5.13,2.56,77.22,77.22,0,0,0-30.4,29.67q-4.02,7.68-4.39,10.98l0.73,0.37q1.845,0,8.06-4.4,21.24-15.75,50.53-16.11,10.62,0,37.72,2.56,23.8,2.205,32.23,2.2a81.742,81.742,0,0,0,10.62-.73q34.065-4.035,55.67-40.65,12.81-21.24,13.18-42.12l-1.47-8.42a78.029,78.029,0,0,0-9.52-24.17q-13.545-22.7-64.82-68.85-39.54-35.145-54.56-56.03a37.541,37.541,0,0,1-2.2-3.29q-15.75-23.43-15.75-36.99c-0.24-2.2-.85-3.54-1.83-4.03-1.7.25-4.15,2.69-7.32,7.33a129.391,129.391,0,0,0-10.26,16.48l-4.02,7.69,4.39,12.08a124.362,124.362,0,0,0,21.61,38.09l8.79,10.62-5.13,5.86q-10.245,14.28-10.62,22.34,1.83,1.83,4.76,10.98,1.1,4.035,3.3,12.45,18.3,69.225,23.07,100.35v0.36c0.24,1.23.85,1.35,1.83,0.37a55.007,55.007,0,0,0,5.86-7.33q12.81-18.675,12.81-24.9-1.455-15.735-19.4-88.62l-5.13-18.31,5.86,4.39q3.3,2.565,7.69,6.59,38.445,33.33,60.06,56.77a145.878,145.878,0,0,1,24.17,32.96,4.542,4.542,0,0,1,.73,1.09q4.4,8.79,4.39,22.34l0.37,13.19-10.25,5.12a60.374,60.374,0,0,1-26.74,6.23q-1.47,0-43.58-3.66a8.767,8.767,0,0,0,1.1-1.83h0Z" transform="translate(-1347.19 -1727.94)"/>
</svg>
