<svg xmlns="http://www.w3.org/2000/svg" width="208.75" height="301.03" viewBox="0 0 208.75 301.03">
  <defs>
    <style>
      .cls-1 {
        fill-rule: evenodd;
      }
    </style>
  </defs>
  <path id="D" class="cls-1" d="M359.79,1996.98c0.24-.49.486-0.98,0.732-1.47l4.761-9.52-2.2-14.28-4.761,9.52a109.553,109.553,0,0,1-10.986,16.84q-8.428-.36-8.789-0.36h-9.522q-20.874.735-36.255,7.69a51.653,51.653,0,0,0-5.127,2.56,77.2,77.2,0,0,0-30.4,29.67q-4.026,7.68-4.395,10.98l0.733,0.37q1.836,0,8.056-4.4,21.243-15.75,50.537-16.11,10.619,0,37.72,2.56,23.8,2.205,32.227,2.2a81.814,81.814,0,0,0,10.62-.73q34.058-4.035,55.664-40.65,12.815-21.24,13.184-42.12l-1.465-8.42a78.183,78.183,0,0,0-9.522-24.17q-13.553-22.7-64.819-68.85-39.55-35.145-54.566-56.03a37.77,37.77,0,0,1-2.2-3.29q-15.75-23.43-15.747-36.99c-0.24-2.2-.852-3.54-1.831-4.03q-2.557.375-7.324,7.33a129.5,129.5,0,0,0-10.254,16.48l-4.028,7.69,4.394,12.08a124.331,124.331,0,0,0,21.607,38.09l8.789,10.62-5.127,5.86q-10.248,14.28-10.62,22.34,1.836,1.83,4.76,10.98,1.1,4.035,3.3,12.45,18.308,69.225,23.072,100.35v0.36c0.24,1.23.852,1.35,1.831,0.37a54.376,54.376,0,0,0,5.859-7.33q12.815-18.675,12.817-24.9-1.467-15.735-19.409-88.62l-5.127-18.31,5.86,4.39q3.3,2.565,7.69,6.59,38.452,33.33,60.059,56.77a145.756,145.756,0,0,1,24.17,32.96,4.426,4.426,0,0,1,.732,1.09q4.4,8.79,4.394,22.34l0.367,13.19L429,1996.24a60.358,60.358,0,0,1-26.734,6.23q-1.467,0-43.579-3.66a8.824,8.824,0,0,0,1.1-1.83h0Z" transform="translate(-252.844 -1747.94)"/>
</svg>
