<svg xmlns="http://www.w3.org/2000/svg" width="208.75" height="301.03" viewBox="0 0 208.75 301.03">
  <defs>
    <style>
      .cls-1 {
        fill-rule: evenodd;
      }
    </style>
  </defs>
  <path id="D" class="cls-1" d="M1808.79,1986.98c0.24-.49.49-0.98,0.73-1.47l4.76-9.52-2.19-14.28-4.76,9.52a109.886,109.886,0,0,1-10.99,16.84q-8.43-.36-8.79-0.36h-9.52q-20.88.735-36.26,7.69a51.993,51.993,0,0,0-5.12,2.56,77.155,77.155,0,0,0-30.4,29.67q-4.02,7.68-4.39,10.98l0.73,0.37q1.83,0,8.06-4.4,21.24-15.75,50.53-16.11,10.62,0,37.72,2.56,23.8,2.205,32.23,2.2a81.861,81.861,0,0,0,10.62-.73q34.05-4.035,55.66-40.65,12.825-21.24,13.19-42.12l-1.47-8.42a78.029,78.029,0,0,0-9.52-24.17q-13.545-22.7-64.82-68.85-39.555-35.145-54.56-56.03a35.428,35.428,0,0,1-2.2-3.29q-15.75-23.43-15.75-36.99c-0.24-2.2-.85-3.54-1.83-4.03q-2.565.375-7.32,7.33a129.391,129.391,0,0,0-10.26,16.48l-4.03,7.69,4.4,12.08a124.328,124.328,0,0,0,21.6,38.09l8.79,10.62-5.12,5.86q-10.26,14.28-10.62,22.34,1.83,1.83,4.76,10.98,1.1,4.035,3.29,12.45,18.315,69.225,23.07,100.35v0.36c0.24,1.23.86,1.35,1.84,0.37a54.263,54.263,0,0,0,5.85-7.33q12.825-18.675,12.82-24.9-1.47-15.735-19.41-88.62l-5.12-18.31,5.86,4.39q3.285,2.565,7.69,6.59,38.445,33.33,60.05,56.77a145.27,145.27,0,0,1,24.17,32.96,4.535,4.535,0,0,1,.74,1.09q4.395,8.79,4.39,22.34l0.37,13.19-10.26,5.12a60.3,60.3,0,0,1-26.73,6.23q-1.47,0-43.58-3.66a8.767,8.767,0,0,0,1.1-1.83h0Z" transform="translate(-1701.84 -1737.94)"/>
</svg>
