<svg xmlns="http://www.w3.org/2000/svg" width="166.282" height="245.25" viewBox="0 0 166.282 245.25">
  <defs>
    <style>
      .cls-1 {
        fill-rule: evenodd;
      }
    </style>
  </defs>
  <path id="E" class="cls-1" d="M503.762,1874.72a3.721,3.721,0,0,1,1.465-.73q1.1,0.36,3.3,6.59,4.395,14.28,5.493,14.28,3.3-.36,13.184-17.21l6.958-11.35-2.564-9.53q-2.936-10.245-2.93-25.26v-6.96q0.73-9.15,8.423-24.17,10.248-21.24,10.62-23.81,0-2.19-5.493,3.3a52.9,52.9,0,0,0-5.493,6.96q-17.217,24.54-22.339,39.18-1.1,2.94-4.761,3.3h-3.295a40.237,40.237,0,0,0-4.4-.37q-15.381.375-31.494,17.58a93.838,93.838,0,0,0-8.057,10.25q-18.677,26.745-18.677,43.22,0,6.585,4.4,13.91,12.085,20.145,43.579,30.4l7.324,2.2-14.282,13.55a284.915,284.915,0,0,0-23.8,24.53q-2.935,3.66-6.591,8.42-15.743,21.255-15.747,27.84l0.366,0.36q2.567,0,16.479-5.86,36.615-15.735,69.947-15.74,31.86,0,53.1,6.22a23.179,23.179,0,0,0,6.592,1.47q4.395-.36,9.888-8.43,9.518-17.2,9.887-22.7,0-5.49-4.394-17.95-16.48-45.765-16.846-63.35,0-4.395-1.831-5.13-1.837,0-11.719,13.55-7.329,10.635-7.69,19.78,0,13.545,6.958,36.62l2.93,9.15h-24.17a195.719,195.719,0,0,0-46.875,5.5q-17.219,4.755-17.579,4.76,0.361-1.455,12.085-13.19c0.733-.73,1.585-1.58,2.564-2.56q28.2-28.2,28.2-39.55-0.369-5.85-14.282-11.35-35.895-12.09-45.41-33.69a32.716,32.716,0,0,1-2.2-8.43,7.089,7.089,0,0,1,1.1-3.66q4.755-5.85,17.212-5.86a24.325,24.325,0,0,1,6.958,1.1q12.445,3.3,12.451,12.09a1.47,1.47,0,0,0,1.465.73h0Zm54.566-90.82q-2.2,2.925-5.127,10.25-13.554,31.14-13.55,54.2,0.36,17.58,3.662,19.41,1.459-.36,4.761-3.66,11.346-12.825,11.352-22.34a37.938,37.938,0,0,0-.732-5.49,104.957,104.957,0,0,1-1.1-13.92,135.8,135.8,0,0,1,6.592-41.02v-1.46q-2.567.375-5.859,4.03h0Z" transform="translate(-438.562 -1775.94)"/>
</svg>
