<svg xmlns="http://www.w3.org/2000/svg" width="254.5" height="342.4" viewBox="0 0 254.5 342.4">
  <defs>
    <style>
      .cls-1 {
        fill-rule: evenodd;
      }
    </style>
  </defs>
  <path id="G" class="cls-1" d="M825.877,1765.9q-2.2,2.925-5.127,10.25-13.553,31.14-13.549,54.2,0.36,17.58,3.662,19.41,1.458-.36,4.76-3.66,11.347-12.825,11.353-22.34a37.938,37.938,0,0,0-.732-5.49,104.957,104.957,0,0,1-1.1-13.92,135.8,135.8,0,0,1,6.592-41.02v-1.46q-2.567.375-5.86,4.03h0Zm0.367,246.82-1.1-.36c-0.979-.25-2.14-0.55-3.479-0.92s-2.81-.86-4.4-1.46-3.112-1.16-4.577-1.65q-34.057-10.62-65.918-10.62a123.058,123.058,0,0,0-24.17,2.2q-2.567.735-5.86,1.46-35.516,9.885-54.931,41.75-4.4,8.415-4.761,10.25c0.246,0.24.612,0.61,1.1,1.1q1.467,0,6.592-4.03,26.367-21.6,64.086-21.97a180.115,180.115,0,0,1,30.762,2.93q50.538,9.525,87.158,34.42,5.855,4.035,12.452,9.16,1.1,1.095,32.226,29.3l5.127-6.23a101.935,101.935,0,0,0,9.888-14.65l5.127-9.15-12.451-18.31a395.8,395.8,0,0,1-20.875-35.89l-8.789-17.21-3.662,4.39a14.71,14.71,0,0,0-1.465,2.2,14.244,14.244,0,0,1-1.831,2.56l-4.76-8.79q-14.283-29.295-44.312-98.14L787.791,1923q2.928,7.7,11.353,26.74c-0.733,1.46-1.465,2.81-2.2,4.02q-4.764,7.7-15.015,7.69-12.086,0-20.142-6.59-9.887-8.79-19.775-32.59-16.119-39.18-16.113-70.31c0-1.95.24-5.5,0.732-10.62q0.36-3.3.733-5.5,0.729-4.02,3.3-4.02a21.163,21.163,0,0,1,10.987,3.29q5.853,3.66,14.648,16.11,19.776,26.745,24.536,47.98,1.829,7.335,2.93,7.69,0.729,0,4.028-4.03,15.012-17.94,15.015-30.39-2.2-20.505-2.2-24.54,0-27.825,6.958-49.44a1.042,1.042,0,0,1,.366-0.73l0.732-4.03a2.148,2.148,0,0,0-.732-1.47q-2.936,0-8.789,8.06-9.528,12.825-12.817,25.27a1.046,1.046,0,0,1-.367.73q-1.1,3.3-1.831,3.3a4.829,4.829,0,0,1-2.2-1.83,145.233,145.233,0,0,0-12.085-15.38q-11.724-12.09-20.874-12.45-9.526.36-22.7,16.84-20.874,28.56-21.24,61.89,0,18.315,5.493,41.75,10.248,43.215,25.635,60.79,9.518,10.62,26,10.99a35.662,35.662,0,0,0,20.507-6.23q8.052-5.49,21.241-25.27,22.332,52.74,22.339,52h0Z" transform="translate(-657.062 -1761.88)"/>
</svg>
