<svg xmlns="http://www.w3.org/2000/svg" width="120.85" height="210.56" viewBox="0 0 120.85 210.56">
  <defs>
    <style>
      .cls-1 {
        fill-rule: evenodd;
      }
    </style>
  </defs>
  <path id="I" class="cls-1" d="M1954.41,1942.51q-6.96-29.295-9.89-39.92-6.96-25.995-14.28-60.42-6.225-32.22-9.15-32.96-3.675.735-16.12,18.68a4.265,4.265,0,0,0-.73,1.09,31.43,31.43,0,0,0-4.39,16.48q0,26.37-13.55,55.67-6.96,16.47-7.33,21.24l0.37,0.36q6.585-4.02,23.44-34.79,4.755-10.245,6.22-10.62,0.735,0,7.33,26,2.19,8.79,7.32,28.94,6.945,27.825,10.25,42.11h-14.28q-27.465,0-36.62,9.52c-0.73.98-1.95,2.56-3.66,4.76q-13.92,19.785-13.92,23.07,0,1.845,7.69-1.46,10.635-4.755,24.54-4.76,17.94,0,37.72,9.52l9.52,4.76,4.76-5.49a17.472,17.472,0,0,1,2.2-2.57q10.98-13.545,13.55-24.53-3.675-15.015-10.99-44.68h0Zm-91.19,45.04-4.76,5.5q-4.02,4.4-9.15,15.01l-4.76,9.16,11.72-3.67,5.12-9.15q5.145-10.245,9.16-15.02l4.76-5.86Z" transform="translate(-1844.56 -1809.22)"/>
</svg>
