<svg xmlns="http://www.w3.org/2000/svg" width="183.5" height="251.97" viewBox="0 0 183.5 251.97">
  <defs>
    <style>
      .cls-1 {
        fill-rule: evenodd;
      }
    </style>
  </defs>
  <path id="N" class="cls-1" d="M161.055,1874.66q-10.986,16.485-11.352,18.68,0.369,1.47,8.789,7.32,19.775,13.56,20.141,13.92a4.3,4.3,0,0,1,.733,1.1q9.148,15.75,35.522,92.65l10.254,29.66,3.662-4.39c0.973-1.23,2.2-2.69,3.662-4.4q12.085-16.47,12.085-21.6,0-2.94-9.521-32.96-8.059-24.9-8.057-26.74v-0.36q0.729,0.36,10.254,7.69,69.215,54.57,75.073,54.56,6.952-3.285,16.48-20.87l4.394-8.06-15.014-43.94q-10.988-31.86-30.4-93.75-9.526-33.69-13.55-34.43a3.007,3.007,0,0,0-1.831,1.1q-5.862,5.13-12.817,18.68l-4.395,7.32,6.592,21.24q27.827,86.79,27.832,91.19l-1.1-.37a17.083,17.083,0,0,0-2.38-1.83q-1.649-1.1-3.662-2.56l-4.578-3.3q-2.566-1.83-5.493-4.03t-6.042-4.57q-3.115-2.385-6.409-4.95-28.2-21.975-49.072-36.25a36.038,36.038,0,0,0-4.761-2.93q-6.231-4.755-9.888-13.92-6.591-14.64-9.521-15.38a4.442,4.442,0,0,0-2.2,1.1q-11.347,8.055-15.381,8.06-2.928,0-8.057,7.32h0Zm104.736-88.62-4.76,5.13q-4.035,4.395-9.156,15.01l-5.127,9.16,3.663,12.08,4.76-9.16q5.124-10.6,9.156-15.01l4.76-5.86Z" transform="translate(-149.688 -1786.03)"/>
</svg>
