<svg xmlns="http://www.w3.org/2000/svg" width="183.47" height="251.97" viewBox="0 0 183.47 251.97">
  <defs>
    <style>
      .cls-1 {
        fill-rule: evenodd;
      }
    </style>
  </defs>
  <path id="N" class="cls-1" d="M1254.81,1848.92q-10.995,16.47-11.36,18.67,0.375,1.47,8.79,7.33,19.785,13.545,20.14,13.91a4.842,4.842,0,0,1,.74,1.1q9.15,15.75,35.52,92.65l10.25,29.67,3.67-4.4c0.97-1.22,2.19-2.69,3.66-4.39q12.075-16.485,12.08-21.61,0-2.925-9.52-32.96-8.055-24.9-8.06-26.73v-0.37q0.735,0.375,10.26,7.69,69.21,54.57,75.07,54.57,6.96-3.3,16.48-20.88l4.4-8.05-15.02-43.95q-10.98-31.86-30.4-93.75-9.525-33.69-13.54-34.42a3.02,3.02,0,0,0-1.84,1.1q-5.85,5.13-12.81,18.67l-4.4,7.33,6.59,21.24q27.825,86.79,27.84,91.19l-1.1-.37a16.173,16.173,0,0,0-2.38-1.83c-1.1-.73-2.33-1.59-3.67-2.57s-2.87-2.07-4.57-3.29-3.54-2.56-5.5-4.03-3.97-2.99-6.04-4.58-4.21-3.23-6.41-4.94q-28.2-21.975-49.07-36.26a38.589,38.589,0,0,0-4.76-2.93q-6.225-4.755-9.89-13.91-6.585-14.64-9.52-15.38a4.4,4.4,0,0,0-2.2,1.1q-11.34,8.055-15.38,8.05-2.925,0-8.05,7.33h0Zm104.73-88.63-4.76,5.13q-4.035,4.395-9.15,15.02l-5.13,9.15,3.66,12.09,4.76-9.16q5.13-10.62,9.16-15.01l4.76-5.86Z" transform="translate(-1243.47 -1760.28)"/>
</svg>
