<svg xmlns="http://www.w3.org/2000/svg" width="156.76" height="182.38" viewBox="0 0 156.76 182.38">
  <defs>
    <style>
      .cls-1 {
        fill-rule: evenodd;
      }
    </style>
  </defs>
  <path id="O" class="cls-1" d="M2002.33,1907.13q23.07,32.595,23.07,43.58a16.2,16.2,0,0,1-.37,2.93,2.736,2.736,0,0,0-.37,1.09,3.753,3.753,0,0,0,.74,1.47q2.55-.36,9.15-9.16,11.715-16.83,12.09-24.53,0-5.13-7.69-20.51-4.77-9.15-5.13-13.55l0.37-.37c0.73,0,2.43,1.1,5.12,3.3a134.07,134.07,0,0,1,27.1,29.66q9.15,14.655,9.16,43.95v18.68l-5.86.73h-2.57q-9.525,0-21.6-6.59-27.84-15.015-51.27-49.44-5.13-7.695-10.62-17.21-16.125-29.295-16.11-39.92a2.48,2.48,0,0,1,.73-1.83q2.55,0.36,10.62,9.15a255.684,255.684,0,0,1,23.44,28.57h0Zm-42.12-62.99q-15.015,17.94-17.21,32.96c-0.24,2.2-.37,3.54-0.37,4.03q0,20.5,15.75,50.9,22.695,43.215,55.66,69.21,17.58,13.56,34.79,13.92a37.261,37.261,0,0,0,7.33-.73q11.34-1.83,23.44-17.95,19.4-26.73,19.77-55.3a128.811,128.811,0,0,0-1.1-15.74c-0.49-2.69-.98-5.37-1.46-8.06q-6.96-32.955-34.43-53.47a35.9,35.9,0,0,0-4.39-2.93q-18.675-13.17-49.44-13.91a26.166,26.166,0,0,1-16.85-6.23q-8.775-7.68-15.38-8.05-6.225.36-14.64,9.52a11.608,11.608,0,0,0-1.47,1.83h0Zm77.27,125.61,4.4-5.49a73.5,73.5,0,0,0,9.52-15.02l4.76-9.52-3.3-12.08-4.76,9.88a72.8,72.8,0,0,1-9.52,15.02l-4.39,5.12Z" transform="translate(-1942.62 -1832.78)"/>
</svg>
