<svg xmlns="http://www.w3.org/2000/svg" width="231.91" height="334.47" viewBox="0 0 231.91 334.47">
  <defs>
    <style>
      .cls-1 {
        fill-rule: evenodd;
      }
    </style>
  </defs>
  <path id="RADIO-D" class="cls-1" d="M1164.43,2509.93c0.26-.54.54-1.08,0.81-1.63l5.29-10.58-2.44-15.87-5.29,10.58a122.371,122.371,0,0,1-12.21,18.72c-6.24-.27-9.5-0.41-9.76-0.41h-10.58q-23.2.825-40.29,8.55a57.008,57.008,0,0,0-5.69,2.85,85.7,85.7,0,0,0-33.78,32.96q-4.47,8.535-4.88,12.2l0.81,0.41q2.055,0,8.96-4.88,23.595-17.505,56.15-17.91,11.79,0,41.91,2.85,26.445,2.445,35.81,2.44a89.815,89.815,0,0,0,11.8-.81q37.83-4.485,61.85-45.17,14.235-23.58,14.64-46.79l-1.62-9.36a86.749,86.749,0,0,0-10.58-26.85q-15.06-25.23-72.02-76.5-43.95-39.06-60.63-62.26a39.386,39.386,0,0,1-2.44-3.66q-17.505-26.04-17.5-41.1c-0.27-2.44-.95-3.92-2.04-4.47q-2.835.405-8.13,8.14-4.485,5.7-11.4,18.31l-4.47,8.54,4.88,13.43a138.182,138.182,0,0,0,24.01,42.32l9.76,11.8-5.69,6.51q-11.385,15.87-11.8,24.82,2.04,2.04,5.29,12.21,1.215,4.47,3.66,13.83,20.34,76.905,25.63,111.49v0.41c0.27,1.36.95,1.49,2.04,0.41a60.812,60.812,0,0,0,6.51-8.14q14.235-20.76,14.24-27.67-1.635-17.49-21.57-98.47l-5.69-20.35,6.51,4.89q3.66,2.85,8.54,7.32,42.735,37.035,66.73,63.07,17.1,17.91,26.86,36.62a4.752,4.752,0,0,1,.81,1.22q4.89,9.765,4.89,24.82l0.4,14.65-11.39,5.7a67.223,67.223,0,0,1-29.7,6.91q-1.635,0-48.42-4.06a10.2,10.2,0,0,0,1.22-2.04h0Z" transform="translate(-1045.62 -2233.25)"/>
</svg>
