<svg xmlns="http://www.w3.org/2000/svg" width="288.906" height="365.81" viewBox="0 0 288.906 365.81">
  <defs>
    <style>
      .cls-1 {
        fill-rule: evenodd;
      }
    </style>
  </defs>
  <path id="RADIO-R" class="cls-1" d="M358.323,2404.45q-0.411,1.62-5.29,1.62-2.851,0-12.614-1.22-16.279-1.62-20.752-4.88-3.661-3.66-10.986-27.67-5.293-16.68-5.29-17.9l1.221,0.81c0.814,0.55,1.761,1.22,2.848,2.04s2.372,1.83,3.866,3.05,3.115,2.64,4.883,4.27,3.592,3.26,5.493,4.88,3.865,3.33,5.9,5.09,4.069,3.46,6.1,5.09a68.867,68.867,0,0,1,5.7,5.08q2.642,2.655,5.086,4.68,13.428,12.615,13.835,15.06h0Zm-22.38,146.48,4.883-6.1a81.335,81.335,0,0,0,10.58-16.68l5.289-10.18-4.476-13.02-5.7,10.17q-5.7,11.4-10.173,16.69l-5.29,6.51Zm-69.987-203.04q10.577,28.08,27.263,84.23,10.576,34.17,15.869,50.86,3.252,10.17,4.069,12.61,8.544,27.27,14.648,27.27,6.1-.405,15.463-19.13l4.069-8.54-5.29-15.47q-1.221-3.24-8.952-19.93-5.7-12.21-8.138-17.91,12.608,12.21,133.057,123.7l41.91,38.66,5.29-6.51a112.812,112.812,0,0,0,11.393-16.69l5.29-9.76-13.428-21.16q-17.089-26.865-23.6-39.47l-9.359-19.13-4.069,4.89c-0.813,1.08-2.308,3.12-4.476,6.1a47.636,47.636,0,0,1-3.662,4.48l-3.662,5.29-13.428-12.21q-18.311-17.085-83.821-72.84,10.576-1.62,15.462-6.91,15.05-19.935,15.055-31.34a7.839,7.839,0,0,0-.406-2.44q-1.632-7.32-24.821-30.11-20.352-19.92-43.132-38.25-12.207-9.765-20.752-17.09a175.057,175.057,0,0,1-33.773-41.5q-12.207-20.34-15.055-21.16l-0.407.41a1.9,1.9,0,0,0-.814.2,4.556,4.556,0,0,0-1.017.82c-0.407.4-.814,0.81-1.221,1.22s-0.813.81-1.22,1.22a8.418,8.418,0,0,0-1.221,1.62,8.947,8.947,0,0,1-1.424,1.84q-5.283,7.725-9.766,15.05L233,2269.36l4.883,9.35,0.814,1.63a18.456,18.456,0,0,1,1.628,2.44,27.958,27.958,0,0,0,1.627,2.65c0.814,1.22,1.494,2.31,2.035,3.25,0.546,0.96,1.22,2.11,2.034,3.46s1.564,2.65,2.238,3.87,1.494,2.58,2.442,4.07,1.9,2.99,2.848,4.47a49.907,49.907,0,0,0,3.052,4.28q4.482,7.725,4.882,10.98a17.807,17.807,0,0,1-.813,3.66,17.6,17.6,0,0,0-.814,4.48q0,2.85,6.1,19.94h0Z" transform="translate(-233 -2238.44)"/>
</svg>
