<svg xmlns="http://www.w3.org/2000/svg" width="174.15" height="202.62" viewBox="0 0 174.15 202.62">
  <defs>
    <style>
      .cls-1 {
        fill-rule: evenodd;
      }
    </style>
  </defs>
  <path id="RADIO-O" class="cls-1" d="M2077.8,2403.96q25.635,36.225,25.63,48.42a18.318,18.318,0,0,1-.4,3.26,3.036,3.036,0,0,0-.41,1.22,4.462,4.462,0,0,0,.81,1.63q2.85-.4,10.18-10.17,13.005-18.72,13.42-27.27,0-5.685-8.54-22.78-5.295-10.17-5.7-15.06l0.41-.41c0.81,0,2.71,1.23,5.7,3.67a149.33,149.33,0,0,1,30.11,32.96q10.155,16.275,10.17,48.82v20.76l-6.51.81h-2.85q-10.59,0-24.01-7.32-30.93-16.68-56.96-54.94-5.715-8.535-11.8-19.12-17.91-32.55-17.91-44.35a2.751,2.751,0,0,1,.82-2.04c1.89,0.28,5.83,3.66,11.8,10.18a283.121,283.121,0,0,1,26.04,31.73h0Zm-46.8-69.98q-16.68,19.935-19.12,36.62c-0.27,2.44-.41,3.93-0.41,4.47q0,22.8,17.5,56.56,25.23,48.015,61.85,76.91,19.53,15.06,38.65,15.46a41.61,41.61,0,0,0,8.14-.81q12.615-2.04,26.04-19.94,21.57-29.7,21.98-61.44a143.388,143.388,0,0,0-1.22-17.5q-0.825-4.47-1.63-8.95-7.74-36.63-38.25-59.41a40.053,40.053,0,0,0-4.88-3.26q-20.76-14.64-54.93-15.46a29.033,29.033,0,0,1-18.72-6.92q-9.765-8.535-17.09-8.95-6.93.42-16.28,10.58a13.468,13.468,0,0,0-1.63,2.04h0Zm85.86,139.56,4.88-6.1a81.039,81.039,0,0,0,10.58-16.68l5.29-10.58-3.66-13.43-5.29,10.99a81.463,81.463,0,0,1-10.58,16.68l-4.88,5.7Z" transform="translate(-2011.47 -2321.38)"/>
</svg>
