<svg xmlns="http://www.w3.org/2000/svg" width="218.5" height="264.91" viewBox="0 0 218.5 264.91">
  <defs>
    <style>
      .cls-1 {
        fill-rule: evenodd;
      }
    </style>
  </defs>
  <path id="RADIO-A" class="cls-1" d="M746.471,2407.81q-2.241-.615-5.493-1.83c-0.547-.27-1.087-0.54-1.628-0.82q-8.955-3.66-8.952-8.54,0-3.255,2.442-10.58l2.848-8.54,6.917,15.05q5.694,12.615,6.1,15.46C748.709,2408.29,747.959,2408.22,746.471,2407.81Zm-34.79-16.07a8.766,8.766,0,0,1-2.238-.41c-0.954-.27-2.035-0.61-3.255-1.02s-2.512-.81-3.866-1.22-2.848-.81-4.476-1.22a35.647,35.647,0,0,1-4.476-1.42q-27.266-8.955-42.724-10.18l-16.276-1.22-7.324,9.77a1.14,1.14,0,0,1-.407.81q-14.24,20.355-14.242,23.6v0.41a1.39,1.39,0,0,0,1.017.41,6.235,6.235,0,0,1,1.424.2c0.547,0.14,1.088.27,1.628,0.41s1.157,0.27,1.831.4,1.361,0.28,2.035.41a10.078,10.078,0,0,0,2.034.21,10.748,10.748,0,0,1,2.035.2,9.1,9.1,0,0,0,1.831.2q28.9,2.04,72.428,19.53l0.407,0.41q3.662,1.635,3.662,4.48,0,3.66-8.138,21.15-15.468,30.93-22.379,48.43a16.69,16.69,0,0,0-.814,2.03q-9.356,24.42-9.359,41.1l0.407,0.81,0.407-.41a2.582,2.582,0,0,0,1.424-.4c0.407-.28.814-0.55,1.221-0.82s0.953-.61,1.627-1.01a18.692,18.692,0,0,0,2.035-1.43,23.092,23.092,0,0,0,2.034-1.83,14.5,14.5,0,0,1,2.238-1.83q1.221-.825,2.442-1.83c0.813-.68,1.627-1.42,2.441-2.24q28.075-24.825,59.408-37.84l-21.159-24.01q-20.352,13.425-20.752,13.84,0.4-4.065,17.5-39.47a3.08,3.08,0,0,1,.406-1.22q4.063-8.55,6.1-8.55,1.621,0,7.731,3.26a286.2,286.2,0,0,1,47.2,32.96l17.5,15.05,4.883-5.7a80.785,80.785,0,0,0,10.58-16.68L813,2458.88l-20.752-42.73q-13.837-28.47-21.565-45.17-21.573-47.595-21.566-67.13,0-9.765-3.662-10.58a3.954,3.954,0,0,0-2.035.81c-1.627.81-2.848-.13-3.662-2.85q-2.04-5.28-5.29-6.1-2.851,0-7.324,4.88a175.007,175.007,0,0,0-12.614,18.72q-2.44,4.485-2.441,7.32a10.29,10.29,0,0,0,1.627,4.89,4.91,4.91,0,0,1,.814,1.22q8.946,17.49,8.952,26.85a74.812,74.812,0,0,1-1.221,9.77q-6.1,33.36-9.358,33.36Zm98.47,117.18,4.883-6.1a81.018,81.018,0,0,0,10.579-16.68l5.29-10.58-8.138-8.14-5.7,10.17q-5.7,11.4-10.172,16.69l-5.29,6.51Z" transform="translate(-612.406 -2285.12)"/>
</svg>
