<svg xmlns="http://www.w3.org/2000/svg" width="134.28" height="233.97" viewBox="0 0 134.28 233.97">
  <defs>
    <style>
      .cls-1 {
        fill-rule: evenodd;
      }
    </style>
  </defs>
  <path id="RADIO-I" class="cls-1" d="M1683.56,2432.52q-7.74-32.55-10.99-44.35-7.725-28.89-15.86-67.14-6.93-35.79-10.18-36.62-4.065.825-17.9,20.75a4.673,4.673,0,0,0-.81,1.22,34.9,34.9,0,0,0-4.89,18.31q0,29.31-15.05,61.85-7.725,18.315-8.14,23.6l0.41,0.41q7.32-4.47,26.04-38.65,5.28-11.4,6.92-11.8,0.81,0,8.13,28.88,2.445,9.78,8.14,32.15,7.725,30.93,11.39,46.79h-15.86q-30.525,0-40.69,10.58c-0.82,1.09-2.17,2.85-4.07,5.29q-15.465,21.975-15.47,25.64,0,2.04,8.55-1.63,11.8-5.28,27.26-5.29,19.935,0,41.91,10.58l10.58,5.29,5.29-6.1a19.272,19.272,0,0,1,2.44-2.85q12.21-15.045,15.06-27.26-4.08-16.68-12.21-49.65h0Zm-101.32,50.05-5.29,6.11q-4.47,4.875-10.17,16.68l-5.29,10.17,13.02-4.07,5.7-10.17q5.7-11.385,10.17-16.68l5.29-6.51Z" transform="translate(-1561.5 -2284.41)"/>
</svg>
