<svg xmlns="http://www.w3.org/2000/svg" width="206.344" height="200.69" viewBox="0 0 206.344 200.69">
  <defs>
    <style>
      .cls-1 {
        fill-rule: evenodd;
      }
    </style>
  </defs>
  <path id="U" class="cls-1" d="M85.481,1961.79q-29.3-36.615-60.791-91.55a1.066,1.066,0,0,0-.366-0.73q-13.553-23.445-16.113-23.44-1.837.36-6.226,5.86a83.309,83.309,0,0,0-9.521,14.65,49.49,49.49,0,0,0-3.3,8.05q0,1.11,2.2,4.76L3.45,1899.54q5.854,9.885,12.817,21.6,35.886,58.23,55.3,77.64,5.854,5.865,11.353,6.22,5.124,0,10.254-5.86a36.026,36.026,0,0,0,2.564-2.92q15.381-19.41,23.8-49.08,2.559-9.885,4.029-10.25l0.366,0.37a5.907,5.907,0,0,1,.732.91c0.241,0.37.55,0.8,0.916,1.28a6.518,6.518,0,0,1,.915,1.83,15.9,15.9,0,0,0,.916,2.2c0.366,0.73.79,1.53,1.282,2.38a10.98,10.98,0,0,1,1.1,2.75q5.855,13.545,19.409,36.62,24.171,40.65,27.832,40.65,1.1-.36,5.127-5.13,14.283-16.485,14.283-22.7-0.369-3.3-8.057-15.02-6.961-9.51-13.55-20.14-34.8-55.29-42.48-100.34-1.468,1.47-3.662,4.03-16.48,19.77-16.48,34.79,0,6.225-2.93,23.43-8.428,47.61-13.183,47.61-2.2-.36-10.62-10.62h0Zm102.173,84.96,4.394-5.49a73.052,73.052,0,0,0,9.522-15.02l4.76-9.52L202.3,2005l-5.127,9.53q-5.133,10.245-9.155,15.01l-4.4,5.49Z" transform="translate(0 -1846.06)"/>
</svg>
