<svg xmlns="http://www.w3.org/2000/svg" width="231.906" height="334.47" viewBox="0 0 231.906 334.47">
  <defs>
    <style>
      .cls-1 {
        fill-rule: evenodd;
      }
    </style>
  </defs>
  <path id="UG-D" class="cls-1" d="M794.021,1879.93c0.267-.54.541-1.08,0.814-1.63l5.29-10.58-2.442-15.87-5.289,10.58a121.747,121.747,0,0,1-12.207,18.72q-9.366-.4-9.766-0.41H759.842q-23.194.825-40.284,8.55a56.77,56.77,0,0,0-5.7,2.85,85.743,85.743,0,0,0-33.773,32.96q-4.473,8.535-4.883,12.2l0.814,0.41q2.042,0,8.952-4.88,23.6-17.5,56.152-17.91,11.8,0,41.911,2.85,26.445,2.445,35.807,2.44a89.734,89.734,0,0,0,11.8-.81q37.842-4.485,61.849-45.17,14.24-23.58,14.649-46.79l-1.628-9.36a86.771,86.771,0,0,0-10.579-26.85q-15.058-25.23-72.022-76.5-43.945-39.06-60.628-62.26a41.269,41.269,0,0,1-2.441-3.66q-17.5-26.04-17.5-41.1c-0.267-2.44-.947-3.92-2.035-4.47q-2.841.4-8.138,8.14-4.471,5.7-11.393,18.31l-4.476,8.54,4.883,13.43a138.172,138.172,0,0,0,24.007,42.32l9.766,11.8-5.7,6.51q-11.386,15.87-11.8,24.82,2.042,2.04,5.29,12.21,1.221,4.47,3.662,13.83,20.341,76.9,25.635,111.49v0.41c0.267,1.36.947,1.49,2.034,0.41a60.569,60.569,0,0,0,6.511-8.14q14.238-20.76,14.241-27.67-1.63-17.49-21.566-98.47l-5.7-20.35,6.51,4.89q3.663,2.85,8.545,7.32,42.724,37.035,66.732,63.07,17.09,17.91,26.855,36.62a4.91,4.91,0,0,1,.814,1.22q4.882,9.765,4.883,24.82l0.407,14.65-11.393,5.7a67.218,67.218,0,0,1-29.7,6.91q-1.63,0-48.421-4.06a9.679,9.679,0,0,0,1.22-2.04h0Z" transform="translate(-675.219 -1603.25)"/>
</svg>
