<svg xmlns="http://www.w3.org/2000/svg" width="184.72" height="272.5" viewBox="0 0 184.72 272.5">
  <defs>
    <style>
      .cls-1 {
        fill-rule: evenodd;
      }
    </style>
  </defs>
  <path id="UG-E" class="cls-1" d="M1106.39,1752.98a4.341,4.341,0,0,1,1.63-.82q1.23,0.42,3.66,7.33,4.89,15.87,6.11,15.87,3.66-.4,14.65-19.13l7.73-12.61-2.85-10.58q-3.27-11.385-3.26-28.08v-7.73q0.81-10.17,9.36-26.85,11.385-23.6,11.8-26.45,0-2.445-6.1,3.66a59.141,59.141,0,0,0-6.1,7.73q-19.14,27.27-24.83,43.54c-0.81,2.17-2.58,3.4-5.28,3.66h-3.67a45.666,45.666,0,0,0-4.88-.4q-17.085.405-34.99,19.53a103.8,103.8,0,0,0-8.96,11.39q-20.745,29.7-20.75,48.01,0,7.335,4.89,15.47,13.425,22.38,48.42,33.77l8.14,2.44-15.87,15.06a315.662,315.662,0,0,0-26.45,27.26q-3.27,4.065-7.33,9.36-17.49,23.6-17.49,30.92l0.4,0.41q2.85,0,18.31-6.51,40.695-17.49,77.72-17.5,35.4,0,59,6.92a25.726,25.726,0,0,0,7.33,1.63q4.875-.4,10.98-9.36,10.575-19.125,10.99-25.23,0-6.105-4.88-19.94-18.315-50.865-18.72-70.39c0-3.26-.68-5.15-2.04-5.7q-2.04,0-13.02,15.06-8.145,11.8-8.54,21.97,0,15.06,7.73,40.69l3.26,10.17h-26.86a217.75,217.75,0,0,0-52.08,6.1q-19.14,5.3-19.53,5.29,0.39-1.62,13.42-14.64l2.85-2.85q31.335-31.335,31.33-43.95-0.4-6.495-15.87-12.61-39.87-13.425-50.45-37.44a36.117,36.117,0,0,1-2.44-9.35,7.8,7.8,0,0,1,1.22-4.07q5.28-6.51,19.12-6.51a26.691,26.691,0,0,1,7.73,1.22q13.83,3.66,13.84,13.42a1.613,1.613,0,0,0,1.62.82h0Zm60.63-100.91c-1.62,2.17-3.53,5.97-5.69,11.39q-15.06,34.59-15.06,60.22,0.4,19.53,4.07,21.57c1.08-.27,2.85-1.63,5.29-4.07q12.6-14.235,12.61-24.82a42.054,42.054,0,0,0-.81-6.11,117.236,117.236,0,0,1-1.22-15.46,150.908,150.908,0,0,1,7.32-45.57v-1.63c-1.9.27-4.07,1.77-6.51,4.48h0Z" transform="translate(-1033.97 -1643.25)"/>
</svg>
