<svg xmlns="http://www.w3.org/2000/svg" width="282.78" height="380.44" viewBox="0 0 282.78 380.44">
  <defs>
    <style>
      .cls-1 {
        fill-rule: evenodd;
      }
    </style>
  </defs>
  <path id="UG-G" class="cls-1" d="M1792.08,1634.07q-2.445,3.255-5.7,11.39-15.06,34.59-15.05,60.22,0.39,19.53,4.07,21.57,1.62-.4,5.29-4.07,12.6-14.235,12.61-24.82a42.054,42.054,0,0,0-.81-6.11,115.738,115.738,0,0,1-1.23-15.46,150.927,150.927,0,0,1,7.33-45.57v-1.63c-1.9.27-4.07,1.77-6.51,4.48h0Zm0.41,274.25-1.23-.41c-1.08-.27-2.37-0.61-3.86-1.02a50.467,50.467,0,0,1-4.88-1.62c-1.77-.68-3.46-1.29-5.09-1.84q-37.845-11.805-73.24-11.8a137,137,0,0,0-26.86,2.45q-2.85.81-6.51,1.62-39.465,10.995-61.03,46.39-4.89,9.36-5.29,11.39l1.22,1.22c1.08,0,3.53-1.49,7.32-4.47q29.3-24.015,71.21-24.42a200.923,200.923,0,0,1,34.18,3.26q56.145,10.575,96.84,38.25,6.51,4.47,13.84,10.17,1.215,1.215,35.8,32.55l5.7-6.91a113.769,113.769,0,0,0,10.99-16.28l5.69-10.17-13.83-20.35a435.754,435.754,0,0,1-23.19-39.87l-9.77-19.13-4.07,4.88a17.256,17.256,0,0,0-1.63,2.45,15.714,15.714,0,0,1-2.03,2.84l-5.29-9.76q-15.87-32.55-49.24-109.05l-28.48,19.94q3.255,8.535,12.61,29.7-1.215,2.445-2.44,4.48-5.295,8.535-16.68,8.54-13.425,0-22.38-7.32-10.98-9.765-21.97-36.22-17.91-43.53-17.91-78.12,0-3.255.82-11.8,0.4-3.66.81-6.11,0.81-4.47,3.66-4.47a23.573,23.573,0,0,1,12.21,3.66q6.51,4.08,16.28,17.9,21.975,29.715,27.26,53.31c1.35,5.43,2.44,8.28,3.25,8.54,0.55,0,2.04-1.48,4.48-4.47q16.68-19.935,16.68-33.78-2.43-22.77-2.44-27.26,0-30.915,7.73-54.93a1.175,1.175,0,0,1,.41-0.81l0.81-4.48a2.372,2.372,0,0,0-.81-1.63q-3.255,0-9.77,8.96-10.575,14.235-14.24,28.07a1.222,1.222,0,0,1-.4.82q-1.23,3.66-2.04,3.66a5.4,5.4,0,0,1-2.44-2.04,162.158,162.158,0,0,0-13.43-17.09q-13.02-13.425-23.19-13.83-10.59.4-25.23,18.72-23.19,31.725-23.6,68.76,0,20.355,6.1,46.39,11.4,48.015,28.49,67.54,10.575,11.82,28.89,12.21a39.542,39.542,0,0,0,22.78-6.92q8.955-6.1,23.6-28.07,24.825,58.59,24.83,57.78h0Z" transform="translate(-1604.5 -1629.59)"/>
</svg>
