<svg xmlns="http://www.w3.org/2000/svg" width="203.844" height="279.94" viewBox="0 0 203.844 279.94">
  <defs>
    <style>
      .cls-1 {
        fill-rule: evenodd;
      }
    </style>
  </defs>
  <path id="UG-N" class="cls-1" d="M373.362,1775.71q-12.207,18.3-12.614,20.75,0.41,1.635,9.765,8.14,21.974,15.06,22.38,15.46a4.938,4.938,0,0,1,.814,1.22q10.165,17.505,39.469,102.95l11.393,32.96,4.069-4.89q1.622-2.04,4.069-4.88,13.428-18.315,13.428-24.01,0-3.255-10.579-36.62-8.955-27.66-8.952-29.7v-0.41q0.81,0.4,11.393,8.55,76.905,60.63,83.415,60.62,7.725-3.66,18.31-23.19l4.883-8.95-16.683-48.83q-12.207-35.4-33.773-104.17-10.586-37.425-15.055-38.24a3.29,3.29,0,0,0-2.035,1.22q-6.513,5.7-14.241,20.75l-4.883,8.14,7.324,23.6q30.918,96.435,30.925,101.31l-1.221-.4a19.131,19.131,0,0,0-2.645-2.04c-1.22-.81-2.581-1.76-4.069-2.85s-3.191-2.3-5.086-3.66-3.936-2.85-6.1-4.47-4.412-3.32-6.713-5.09-4.68-3.59-7.121-5.49q-31.338-24.42-54.525-40.29a40.41,40.41,0,0,0-5.29-3.25q-6.923-5.28-10.986-15.46-7.324-16.275-10.579-17.09a4.852,4.852,0,0,0-2.442,1.22q-12.608,8.955-17.09,8.95-3.252,0-8.951,8.14h0Zm116.373-98.47-5.289,5.69q-4.484,4.89-10.173,16.69l-5.7,10.17,4.069,13.43,5.29-10.18q5.694-11.79,10.173-16.68l5.289-6.51Z" transform="translate(-360.75 -1677.25)"/>
</svg>
