<svg xmlns="http://www.w3.org/2000/svg" width="288.9" height="365.81" viewBox="0 0 288.9 365.81">
  <defs>
    <style>
      .cls-1 {
        fill-rule: evenodd;
      }
    </style>
  </defs>
  <path id="UG-R" class="cls-1" d="M1451.76,1774.45q-0.4,1.62-5.29,1.62-2.85,0-12.61-1.22-16.275-1.62-20.75-4.88-3.66-3.66-10.99-27.67-5.3-16.68-5.29-17.9l1.22,0.81c0.82,0.55,1.76,1.22,2.85,2.04s2.37,1.83,3.87,3.05q2.22,1.83,4.88,4.27,2.64,2.445,5.49,4.88t5.9,5.09c2.04,1.77,4.07,3.46,6.11,5.09a69.911,69.911,0,0,1,5.69,5.08q2.64,2.655,5.09,4.68,13.425,12.615,13.83,15.06h0Zm-22.38,146.48,4.89-6.1a81.463,81.463,0,0,0,10.58-16.68l5.29-10.18-4.48-13.02-5.7,10.17q-5.7,11.4-10.17,16.69l-5.29,6.51Zm-69.98-203.04q10.575,28.08,27.26,84.23,10.575,34.17,15.87,50.86,3.255,10.17,4.07,12.61,8.535,27.27,14.65,27.27,6.09-.4,15.46-19.13l4.07-8.54-5.29-15.47q-1.23-3.24-8.95-19.93-5.715-12.21-8.14-17.91,12.6,12.21,133.05,123.7l41.91,38.66,5.29-6.51a112.911,112.911,0,0,0,11.4-16.69l5.29-9.76-13.43-21.16q-17.085-26.865-23.6-39.47l-9.36-19.13-4.07,4.89c-0.81,1.08-2.31,3.12-4.47,6.1a46.9,46.9,0,0,1-3.67,4.48l-3.66,5.29-13.43-12.21q-18.3-17.085-83.82-72.84,10.575-1.62,15.46-6.91,15.06-19.935,15.06-31.34a7.759,7.759,0,0,0-.41-2.44q-1.62-7.32-24.82-30.11-20.355-19.92-43.13-38.25-12.21-9.765-20.75-17.09a175,175,0,0,1-33.77-41.5q-12.21-20.34-15.06-21.16l-0.41.41a1.9,1.9,0,0,0-.81.2,4.558,4.558,0,0,0-1.02.82l-1.22,1.22c-0.41.4-.81,0.81-1.22,1.22a8.418,8.418,0,0,0-1.22,1.62,9.29,9.29,0,0,1-1.42,1.84q-5.295,7.725-9.77,15.05l-4.88,8.55,4.88,9.35,0.81,1.63a18.217,18.217,0,0,1,1.63,2.44,30.809,30.809,0,0,0,1.63,2.65c0.81,1.22,1.49,2.31,2.03,3.25,0.55,0.96,1.22,2.11,2.04,3.46s1.56,2.65,2.24,3.87,1.49,2.58,2.44,4.07,1.9,2.99,2.85,4.47a49.238,49.238,0,0,0,3.05,4.28q4.485,7.725,4.88,10.98a18.156,18.156,0,0,1-.81,3.66,17.7,17.7,0,0,0-.82,4.48q0,2.85,6.11,19.94h0Z" transform="translate(-1326.44 -1608.44)"/>
</svg>
