<svg xmlns="http://www.w3.org/2000/svg" width="156.718" height="182.37" viewBox="0 0 156.718 182.37">
  <defs>
    <style>
      .cls-1 {
        fill: #fff;
        fill-rule: evenodd;
      }
    </style>
  </defs>
  <path id="O" class="cls-1" d="M1005,1871.58q23.07,32.6,23.07,43.57a16,16,0,0,1-.37,2.93,2.931,2.931,0,0,0-.36,1.1,3.769,3.769,0,0,0,.73,1.47q2.565-.36,9.16-9.16,11.715-16.83,12.08-24.53,0-5.13-7.69-20.51-4.77-9.15-5.13-13.55l0.37-.37q1.1,0,5.13,3.3a134.337,134.337,0,0,1,27.1,29.66q9.15,14.655,9.15,43.95v18.67l-5.86.74h-2.56q-9.525,0-21.61-6.6-27.825-15-51.267-49.43-5.133-7.695-10.62-17.22-16.119-29.3-16.113-39.91a2.458,2.458,0,0,1,.732-1.83q2.558,0.36,10.62,9.15A254.8,254.8,0,0,1,1005,1871.58h0Zm-42.115-62.99q-15.012,17.94-17.212,32.96c-0.24,2.19-.366,3.54-0.366,4.02q0,20.52,15.747,50.91,22.7,43.215,55.666,69.21,17.58,13.56,34.79,13.92a36.363,36.363,0,0,0,7.32-.74q11.355-1.815,23.44-17.94,19.41-26.73,19.78-55.3a128.811,128.811,0,0,0-1.1-15.74c-0.5-2.69-.98-5.37-1.47-8.06q-6.96-32.955-34.42-53.47a36.073,36.073,0,0,0-4.4-2.93q-18.675-13.185-49.43-13.91a26.143,26.143,0,0,1-16.851-6.23q-8.788-7.695-15.38-8.06-6.232.375-14.649,9.53a11.425,11.425,0,0,0-1.465,1.83h0Zm77.275,125.61,4.39-5.5a72.7,72.7,0,0,0,9.52-15.01l4.76-9.52-3.29-12.09-4.76,9.89a73.491,73.491,0,0,1-9.53,15.02l-4.39,5.12Z" transform="translate(-945.312 -1797.22)"/>
</svg>
